<svg id="export-svg" width="100%" xmlns="http://www.w3.org/2000/svg" style="max-width: 2754px; background: rgb(255, 255, 255);" viewBox="-50 -10 2754 1893" role="graphics-document document" aria-roledescription="sequence"><style xmlns="http://www.w3.org/1999/xhtml">p {margin: 0;}</style><g><rect x="2278" y="-5" fill="#FFFFF8" stroke="rgb(0,0,0, 0.5)" width="396" height="1857" class="rect"/></g><g><rect x="1213.5" y="-5" fill="#FFFFF8" stroke="rgb(0,0,0, 0.5)" width="1044.5" height="1857" class="rect"/></g><g><rect x="826.5" y="-5" fill="#FFFFF8" stroke="rgb(0,0,0, 0.5)" width="273" height="1857" class="rect"/></g><g><rect x="438.5" y="-5" fill="#FFFFF8" stroke="rgb(0,0,0, 0.5)" width="277" height="1857" class="rect"/></g><g><rect x="2303" y="1767" fill="#eaeaea" stroke="#666" width="346" height="65" name="TLG" rx="6" ry="6" class="actor actor-bottom" data-look="neo" filter="url(#drop-shadow)"/><text x="2476" y="1799.5" style="text-anchor: middle; font-size: 16px; font-weight: 400;" dominant-baseline="central" alignment-baseline="central" class="actor actor-box"><tspan x="2476" dy="0">Transparency Ledger (e.g., IPFS or Chain)</tspan></text></g><g><rect x="2001" y="1767" fill="#eaeaea" stroke="#666" width="232" height="65" name="GOV" rx="6" ry="6" class="actor actor-bottom" data-look="neo" filter="url(#drop-shadow)"/><text x="2117" y="1799.5" style="text-anchor: middle; font-size: 16px; font-weight: 400;" dominant-baseline="central" alignment-baseline="central" class="actor actor-box"><tspan x="2117" dy="0">C2-03 Governance and DAO</tspan></text></g><g><rect x="1679.5" y="1767" fill="#eaeaea" stroke="#666" width="243" height="65" name="MET" rx="6" ry="6" class="actor actor-bottom" data-look="neo" filter="url(#drop-shadow)"/><text x="1801" y="1799.5" style="text-anchor: middle; font-size: 16px; font-weight: 400;" dominant-baseline="central" alignment-baseline="central" class="actor actor-box"><tspan x="1801" dy="0">C2-07 Metrics and Analytics</tspan></text></g><g><rect x="1238.5" y="1767" fill="#eaeaea" stroke="#666" width="219" height="65" name="SEC" rx="6" ry="6" class="actor actor-bottom" data-look="neo" filter="url(#drop-shadow)"/><text x="1348" y="1799.5" style="text-anchor: middle; font-size: 16px; font-weight: 400;" dominant-baseline="central" alignment-baseline="central" class="actor actor-box"><tspan x="1348" dy="0">C2-10 Security and Audit</tspan></text></g><g><rect x="851.5" y="1767" fill="#eaeaea" stroke="#666" width="223" height="65" name="API" rx="6" ry="6" class="actor actor-bottom" data-look="neo" filter="url(#drop-shadow)"/><text x="963" y="1799.5" style="text-anchor: middle; font-size: 16px; font-weight: 400;" dominant-baseline="central" alignment-baseline="central" class="actor actor-box"><tspan x="963" dy="0">C2-11 Public API Gateway</tspan></text></g><g><rect x="463.5" y="1767" fill="#eaeaea" stroke="#666" width="227" height="65" name="UI" rx="6" ry="6" class="actor actor-bottom" data-look="neo" filter="url(#drop-shadow)"/><text x="577" y="1799.5" style="text-anchor: middle; font-size: 16px; font-weight: 400;" dominant-baseline="central" alignment-baseline="central" class="actor actor-box"><tspan x="577" dy="0">C2-12 Resonance Board UI</tspan></text></g><g/><g><line id="actor7946" x1="2476" y1="75" x2="2476" y2="1767" class="actor-line 200" stroke-width="0.5px" stroke="#999" name="TLG" data-et="life-line" data-id="TLG"/><g id="root-7946" data-look="neo" data-et="participant" data-id="TLG"><rect x="2303" y="10" fill="#eaeaea" stroke="#666" width="346" height="65" name="TLG" rx="6" ry="6" class="actor actor-top" data-look="neo" filter="url(#drop-shadow)"/><text x="2476" y="42.5" style="text-anchor: middle; font-size: 16px; font-weight: 400;" dominant-baseline="central" alignment-baseline="central" class="actor actor-box"><tspan x="2476" dy="0">Transparency Ledger (e.g., IPFS or Chain)</tspan></text></g></g><g><line id="actor7945" x1="2117" y1="75" x2="2117" y2="1767" class="actor-line 200" stroke-width="0.5px" stroke="#999" name="GOV" data-et="life-line" data-id="GOV"/><g id="root-7945" data-look="neo" data-et="participant" data-id="GOV"><rect x="2001" y="10" fill="#eaeaea" stroke="#666" width="232" height="65" name="GOV" rx="6" ry="6" class="actor actor-top" data-look="neo" filter="url(#drop-shadow)"/><text x="2117" y="42.5" style="text-anchor: middle; font-size: 16px; font-weight: 400;" dominant-baseline="central" alignment-baseline="central" class="actor actor-box"><tspan x="2117" dy="0">C2-03 Governance and DAO</tspan></text></g></g><g><line id="actor7944" x1="1801" y1="75" x2="1801" y2="1767" class="actor-line 200" stroke-width="0.5px" stroke="#999" name="MET" data-et="life-line" data-id="MET"/><g id="root-7944" data-look="neo" data-et="participant" data-id="MET"><rect x="1679.5" y="10" fill="#eaeaea" stroke="#666" width="243" height="65" name="MET" rx="6" ry="6" class="actor actor-top" data-look="neo" filter="url(#drop-shadow)"/><text x="1801" y="42.5" style="text-anchor: middle; font-size: 16px; font-weight: 400;" dominant-baseline="central" alignment-baseline="central" class="actor actor-box"><tspan x="1801" dy="0">C2-07 Metrics and Analytics</tspan></text></g></g><g><line id="actor7943" x1="1348" y1="75" x2="1348" y2="1767" class="actor-line 200" stroke-width="0.5px" stroke="#999" name="SEC" data-et="life-line" data-id="SEC"/><g id="root-7943" data-look="neo" data-et="participant" data-id="SEC"><rect x="1238.5" y="10" fill="#eaeaea" stroke="#666" width="219" height="65" name="SEC" rx="6" ry="6" class="actor actor-top" data-look="neo" filter="url(#drop-shadow)"/><text x="1348" y="42.5" style="text-anchor: middle; font-size: 16px; font-weight: 400;" dominant-baseline="central" alignment-baseline="central" class="actor actor-box"><tspan x="1348" dy="0">C2-10 Security and Audit</tspan></text></g></g><g><line id="actor7942" x1="963" y1="75" x2="963" y2="1767" class="actor-line 200" stroke-width="0.5px" stroke="#999" name="API" data-et="life-line" data-id="API"/><g id="root-7942" data-look="neo" data-et="participant" data-id="API"><rect x="851.5" y="10" fill="#eaeaea" stroke="#666" width="223" height="65" name="API" rx="6" ry="6" class="actor actor-top" data-look="neo" filter="url(#drop-shadow)"/><text x="963" y="42.5" style="text-anchor: middle; font-size: 16px; font-weight: 400;" dominant-baseline="central" alignment-baseline="central" class="actor actor-box"><tspan x="963" dy="0">C2-11 Public API Gateway</tspan></text></g></g><g><line id="actor7941" x1="577" y1="75" x2="577" y2="1767" class="actor-line 200" stroke-width="0.5px" stroke="#999" name="UI" data-et="life-line" data-id="UI"/><g id="root-7941" data-look="neo" data-et="participant" data-id="UI"><rect x="463.5" y="10" fill="#eaeaea" stroke="#666" width="227" height="65" name="UI" rx="6" ry="6" class="actor actor-top" data-look="neo" filter="url(#drop-shadow)"/><text x="577" y="42.5" style="text-anchor: middle; font-size: 16px; font-weight: 400;" dominant-baseline="central" alignment-baseline="central" class="actor actor-box"><tspan x="577" dy="0">C2-12 Resonance Board UI</tspan></text></g></g><g><line id="actor7940" x1="114" y1="90" x2="114" y2="1767" class="actor-line 200" stroke-width="0.5px" stroke="#999" name="O" data-et="life-line" data-id="O"/></g><style>#export-svg{font-family:arial,sans-serif;font-size:14px;fill:#333;}@keyframes edge-animation-frame{from{stroke-dashoffset:0;}}@keyframes dash{to{stroke-dashoffset:0;}}#export-svg .edge-animation-slow{stroke-dasharray:9,5!important;stroke-dashoffset:900;animation:dash 50s linear infinite;stroke-linecap:round;}#export-svg .edge-animation-fast{stroke-dasharray:9,5!important;stroke-dashoffset:900;animation:dash 20s linear infinite;stroke-linecap:round;}#export-svg .error-icon{fill:hsl(220.5882352941, 100%, 98.3333333333%);}#export-svg .error-text{fill:rgb(8.5000000002, 5.7500000001, 0);stroke:rgb(8.5000000002, 5.7500000001, 0);}#export-svg .edge-thickness-normal{stroke-width:1px;}#export-svg .edge-thickness-thick{stroke-width:3.5px;}#export-svg .edge-pattern-solid{stroke-dasharray:0;}#export-svg .edge-thickness-invisible{stroke-width:0;fill:none;}#export-svg .edge-pattern-dashed{stroke-dasharray:3;}#export-svg .edge-pattern-dotted{stroke-dasharray:2;}#export-svg .marker{fill:#0b0b0b;stroke:#0b0b0b;}#export-svg .marker.cross{stroke:#0b0b0b;}#export-svg svg{font-family:arial,sans-serif;font-size:14px;}#export-svg p{margin:0;}#export-svg .actor{stroke:hsl(40.5882352941, 60%, 83.3333333333%);fill:#fff4dd;stroke-width:1;}#export-svg rect.actor.outer-path[data-look="neo"]{filter:drop-shadow( 1px 2px 2px rgba(185,185,185,1));}#export-svg rect.note[data-look="neo"]{stroke:hsl(52.6829268293, 60%, 73.9215686275%);fill:#fff5ad;filter:drop-shadow( 1px 2px 2px rgba(185,185,185,1));stroke-width:1;}#export-svg text.actor&gt;tspan{fill:#333;stroke:none;}#export-svg .actor-line{stroke:hsl(40.5882352941, 60%, 83.3333333333%);}#export-svg .messageLine0{stroke-width:1;stroke-dasharray:none;stroke:#333;}#export-svg .messageLine1{stroke-width:1;stroke-dasharray:2,2;stroke:#333;}#export-svg #arrowhead path{fill:#333;stroke:#333;}#export-svg .sequenceNumber{fill:#334155;}#export-svg #sequencenumber{fill:#333;}#export-svg #crosshead path{fill:#333;stroke:#333;}#export-svg .messageText{fill:#333;stroke:none;}#export-svg .labelBox{stroke:hsl(40.5882352941, 60%, 83.3333333333%);fill:#fff4dd;filter:drop-shadow( 1px 2px 2px rgba(185,185,185,1));}#export-svg .labelText,#export-svg .labelText&gt;tspan{fill:#333;stroke:none;}#export-svg .loopText,#export-svg .loopText&gt;tspan{fill:#333;stroke:none;}#export-svg .loopLine{stroke-width:2px;stroke-dasharray:2,2;stroke:hsl(40.5882352941, 60%, 83.3333333333%);fill:hsl(40.5882352941, 60%, 83.3333333333%);}#export-svg .note{stroke:hsl(52.6829268293, 60%, 73.9215686275%);fill:#fff5ad;}#export-svg .noteText,#export-svg .noteText&gt;tspan{fill:#333;stroke:none;}#export-svg .activation0{fill:hsl(-79.4117647059, 100%, 93.3333333333%);stroke:hsl(-79.4117647059, 100%, 83.3333333333%);}#export-svg .activation1{fill:hsl(-79.4117647059, 100%, 93.3333333333%);stroke:hsl(-79.4117647059, 100%, 83.3333333333%);}#export-svg .activation2{fill:hsl(-79.4117647059, 100%, 93.3333333333%);stroke:hsl(-79.4117647059, 100%, 83.3333333333%);}#export-svg .actorPopupMenu{position:absolute;}#export-svg .actorPopupMenuPanel{position:absolute;fill:#fff4dd;box-shadow:0px 8px 16px 0px rgba(0,0,0,0.2);filter:drop-shadow(3px 5px 2px rgb(0 0 0 / 0.4));}#export-svg .actor-man circle,#export-svg line{fill:#fff4dd;stroke-width:2px;}#export-svg g rect.rect{filter:drop-shadow( 1px 2px 2px rgba(185,185,185,1));stroke:hsl(40.5882352941, 60%, 83.3333333333%);stroke-width:1;}#export-svg .node .neo-node{stroke:hsl(40.5882352941, 60%, 83.3333333333%);}#export-svg [data-look="neo"].node rect,#export-svg [data-look="neo"].cluster rect,#export-svg [data-look="neo"].node polygon{stroke:url(#export-svg-gradient);filter:drop-shadow( 1px 2px 2px rgba(185,185,185,1));}#export-svg [data-look="neo"].node path{stroke:url(#export-svg-gradient);stroke-width:1;}#export-svg [data-look="neo"].node .outer-path{filter:drop-shadow( 1px 2px 2px rgba(185,185,185,1));}#export-svg [data-look="neo"].node .neo-line path{stroke:hsl(40.5882352941, 60%, 83.3333333333%);filter:none;}#export-svg [data-look="neo"].node circle{stroke:url(#export-svg-gradient);filter:drop-shadow( 1px 2px 2px rgba(185,185,185,1));}#export-svg [data-look="neo"].node circle .state-start{fill:#000000;}#export-svg [data-look="neo"].statediagram-cluster rect{fill:#fff4dd;stroke:url(#export-svg-gradient);stroke-width:1;}#export-svg [data-look="neo"].icon-shape .icon{fill:url(#export-svg-gradient);filter:drop-shadow( 1px 2px 2px rgba(185,185,185,1));}#export-svg [data-look="neo"].icon-shape .icon-neo path{stroke:url(#export-svg-gradient);filter:drop-shadow( 1px 2px 2px rgba(185,185,185,1));}#export-svg :root{--mermaid-font-family:"trebuchet ms",verdana,arial,sans-serif;}</style><g/><defs><symbol id="computer" width="24" height="24"><path transform="scale(.5)" d="M2 2v13h20v-13h-20zm18 11h-16v-9h16v9zm-10.228 6l.466-1h3.524l.467 1h-4.457zm14.228 3h-24l2-6h2.104l-1.33 4h18.45l-1.297-4h2.073l2 6zm-5-10h-14v-7h14v7z"/></symbol></defs><defs><symbol id="database" fill-rule="evenodd" clip-rule="evenodd"><path transform="scale(.5)" d="M12.258.001l.256.004.255.005.253.008.251.01.249.012.247.015.246.016.242.019.241.02.239.023.236.024.233.027.231.028.229.031.225.032.223.034.22.036.217.038.214.04.211.041.208.043.205.045.201.046.198.048.194.05.191.051.187.053.183.054.18.056.175.057.172.059.168.06.163.061.16.063.155.064.15.066.074.033.073.033.071.034.07.034.069.035.068.035.067.035.066.035.064.036.064.036.062.036.06.036.06.037.058.037.058.037.055.038.055.038.053.038.052.038.051.039.05.039.048.039.047.039.045.04.044.04.043.04.041.04.04.041.039.041.037.041.036.041.034.041.033.042.032.042.03.042.029.042.027.042.026.043.024.043.023.043.021.043.02.043.018.044.017.043.015.044.013.044.012.044.011.045.009.044.007.045.006.045.004.045.002.045.001.045v17l-.001.045-.002.045-.004.045-.006.045-.007.045-.009.044-.011.045-.012.044-.013.044-.015.044-.017.043-.018.044-.02.043-.021.043-.023.043-.024.043-.026.043-.027.042-.029.042-.03.042-.032.042-.033.042-.034.041-.036.041-.037.041-.039.041-.04.041-.041.04-.043.04-.044.04-.045.04-.047.039-.048.039-.05.039-.051.039-.052.038-.053.038-.055.038-.055.038-.058.037-.058.037-.06.037-.06.036-.062.036-.064.036-.064.036-.066.035-.067.035-.068.035-.069.035-.07.034-.071.034-.073.033-.074.033-.15.066-.155.064-.16.063-.163.061-.168.06-.172.059-.175.057-.18.056-.183.054-.187.053-.191.051-.194.05-.198.048-.201.046-.205.045-.208.043-.211.041-.214.04-.217.038-.22.036-.223.034-.225.032-.229.031-.231.028-.233.027-.236.024-.239.023-.241.02-.242.019-.246.016-.247.015-.249.012-.251.01-.253.008-.255.005-.256.004-.258.001-.258-.001-.256-.004-.255-.005-.253-.008-.251-.01-.249-.012-.247-.015-.245-.016-.243-.019-.241-.02-.238-.023-.236-.024-.234-.027-.231-.028-.228-.031-.226-.032-.223-.034-.22-.036-.217-.038-.214-.04-.211-.041-.208-.043-.204-.045-.201-.046-.198-.048-.195-.05-.19-.051-.187-.053-.184-.054-.179-.056-.176-.057-.172-.059-.167-.06-.164-.061-.159-.063-.155-.064-.151-.066-.074-.033-.072-.033-.072-.034-.07-.034-.069-.035-.068-.035-.067-.035-.066-.035-.064-.036-.063-.036-.062-.036-.061-.036-.06-.037-.058-.037-.057-.037-.056-.038-.055-.038-.053-.038-.052-.038-.051-.039-.049-.039-.049-.039-.046-.039-.046-.04-.044-.04-.043-.04-.041-.04-.04-.041-.039-.041-.037-.041-.036-.041-.034-.041-.033-.042-.032-.042-.03-.042-.029-.042-.027-.042-.026-.043-.024-.043-.023-.043-.021-.043-.02-.043-.018-.044-.017-.043-.015-.044-.013-.044-.012-.044-.011-.045-.009-.044-.007-.045-.006-.045-.004-.045-.002-.045-.001-.045v-17l.001-.045.002-.045.004-.045.006-.045.007-.045.009-.044.011-.045.012-.044.013-.044.015-.044.017-.043.018-.044.02-.043.021-.043.023-.043.024-.043.026-.043.027-.042.029-.042.03-.042.032-.042.033-.042.034-.041.036-.041.037-.041.039-.041.04-.041.041-.04.043-.04.044-.04.046-.04.046-.039.049-.039.049-.039.051-.039.052-.038.053-.038.055-.038.056-.038.057-.037.058-.037.06-.037.061-.036.062-.036.063-.036.064-.036.066-.035.067-.035.068-.035.069-.035.07-.034.072-.034.072-.033.074-.033.151-.066.155-.064.159-.063.164-.061.167-.06.172-.059.176-.057.179-.056.184-.054.187-.053.19-.051.195-.05.198-.048.201-.046.204-.045.208-.043.211-.041.214-.04.217-.038.22-.036.223-.034.226-.032.228-.031.231-.028.234-.027.236-.024.238-.023.241-.02.243-.019.245-.016.247-.015.249-.012.251-.01.253-.008.255-.005.256-.004.258-.001.258.001zm-9.258 20.499v.01l.001.021.003.021.004.022.005.021.006.022.007.022.009.023.01.022.011.023.012.023.013.023.015.023.016.024.017.023.018.024.019.024.021.024.022.025.023.024.024.025.052.049.056.05.061.051.066.051.07.051.075.051.079.052.084.052.088.052.092.052.097.052.102.051.105.052.11.052.114.051.119.051.123.051.127.05.131.05.135.05.139.048.144.049.147.047.152.047.155.047.16.045.163.045.167.043.171.043.176.041.178.041.183.039.187.039.19.037.194.035.197.035.202.033.204.031.209.03.212.029.216.027.219.025.222.024.226.021.23.02.233.018.236.016.24.015.243.012.246.01.249.008.253.005.256.004.259.001.26-.001.257-.004.254-.005.25-.008.247-.011.244-.012.241-.014.237-.016.233-.018.231-.021.226-.021.224-.024.22-.026.216-.027.212-.028.21-.031.205-.031.202-.034.198-.034.194-.036.191-.037.187-.039.183-.04.179-.04.175-.042.172-.043.168-.044.163-.045.16-.046.155-.046.152-.047.148-.048.143-.049.139-.049.136-.05.131-.05.126-.05.123-.051.118-.052.114-.051.11-.052.106-.052.101-.052.096-.052.092-.052.088-.053.083-.051.079-.052.074-.052.07-.051.065-.051.06-.051.056-.05.051-.05.023-.024.023-.025.021-.024.02-.024.019-.024.018-.024.017-.024.015-.023.014-.024.013-.023.012-.023.01-.023.01-.022.008-.022.006-.022.006-.022.004-.022.004-.021.001-.021.001-.021v-4.127l-.077.055-.08.053-.083.054-.085.053-.087.052-.09.052-.093.051-.095.05-.097.05-.1.049-.102.049-.105.048-.106.047-.109.047-.111.046-.114.045-.115.045-.118.044-.12.043-.122.042-.124.042-.126.041-.128.04-.13.04-.132.038-.134.038-.135.037-.138.037-.139.035-.142.035-.143.034-.144.033-.147.032-.148.031-.15.03-.151.03-.153.029-.154.027-.156.027-.158.026-.159.025-.161.024-.162.023-.163.022-.165.021-.166.02-.167.019-.169.018-.169.017-.171.016-.173.015-.173.014-.175.013-.175.012-.177.011-.178.01-.179.008-.179.008-.181.006-.182.005-.182.004-.184.003-.184.002h-.37l-.184-.002-.184-.003-.182-.004-.182-.005-.181-.006-.179-.008-.179-.008-.178-.01-.176-.011-.176-.012-.175-.013-.173-.014-.172-.015-.171-.016-.17-.017-.169-.018-.167-.019-.166-.02-.165-.021-.163-.022-.162-.023-.161-.024-.159-.025-.157-.026-.156-.027-.155-.027-.153-.029-.151-.03-.15-.03-.148-.031-.146-.032-.145-.033-.143-.034-.141-.035-.14-.035-.137-.037-.136-.037-.134-.038-.132-.038-.13-.04-.128-.04-.126-.041-.124-.042-.122-.042-.12-.044-.117-.043-.116-.045-.113-.045-.112-.046-.109-.047-.106-.047-.105-.048-.102-.049-.1-.049-.097-.05-.095-.05-.093-.052-.09-.051-.087-.052-.085-.053-.083-.054-.08-.054-.077-.054v4.127zm0-5.654v.011l.001.021.003.021.004.021.005.022.006.022.007.022.009.022.01.022.011.023.012.023.013.023.015.024.016.023.017.024.018.024.019.024.021.024.022.024.023.025.024.024.052.05.056.05.061.05.066.051.07.051.075.052.079.051.084.052.088.052.092.052.097.052.102.052.105.052.11.051.114.051.119.052.123.05.127.051.131.05.135.049.139.049.144.048.147.048.152.047.155.046.16.045.163.045.167.044.171.042.176.042.178.04.183.04.187.038.19.037.194.036.197.034.202.033.204.032.209.03.212.028.216.027.219.025.222.024.226.022.23.02.233.018.236.016.24.014.243.012.246.01.249.008.253.006.256.003.259.001.26-.001.257-.003.254-.006.25-.008.247-.01.244-.012.241-.015.237-.016.233-.018.231-.02.226-.022.224-.024.22-.025.216-.027.212-.029.21-.03.205-.032.202-.033.198-.035.194-.036.191-.037.187-.039.183-.039.179-.041.175-.042.172-.043.168-.044.163-.045.16-.045.155-.047.152-.047.148-.048.143-.048.139-.05.136-.049.131-.05.126-.051.123-.051.118-.051.114-.052.11-.052.106-.052.101-.052.096-.052.092-.052.088-.052.083-.052.079-.052.074-.051.07-.052.065-.051.06-.05.056-.051.051-.049.023-.025.023-.024.021-.025.02-.024.019-.024.018-.024.017-.024.015-.023.014-.023.013-.024.012-.022.01-.023.01-.023.008-.022.006-.022.006-.022.004-.021.004-.022.001-.021.001-.021v-4.139l-.077.054-.08.054-.083.054-.085.052-.087.053-.09.051-.093.051-.095.051-.097.05-.1.049-.102.049-.105.048-.106.047-.109.047-.111.046-.114.045-.115.044-.118.044-.12.044-.122.042-.124.042-.126.041-.128.04-.13.039-.132.039-.134.038-.135.037-.138.036-.139.036-.142.035-.143.033-.144.033-.147.033-.148.031-.15.03-.151.03-.153.028-.154.028-.156.027-.158.026-.159.025-.161.024-.162.023-.163.022-.165.021-.166.02-.167.019-.169.018-.169.017-.171.016-.173.015-.173.014-.175.013-.175.012-.177.011-.178.009-.179.009-.179.007-.181.007-.182.005-.182.004-.184.003-.184.002h-.37l-.184-.002-.184-.003-.182-.004-.182-.005-.181-.007-.179-.007-.179-.009-.178-.009-.176-.011-.176-.012-.175-.013-.173-.014-.172-.015-.171-.016-.17-.017-.169-.018-.167-.019-.166-.02-.165-.021-.163-.022-.162-.023-.161-.024-.159-.025-.157-.026-.156-.027-.155-.028-.153-.028-.151-.03-.15-.03-.148-.031-.146-.033-.145-.033-.143-.033-.141-.035-.14-.036-.137-.036-.136-.037-.134-.038-.132-.039-.13-.039-.128-.04-.126-.041-.124-.042-.122-.043-.12-.043-.117-.044-.116-.044-.113-.046-.112-.046-.109-.046-.106-.047-.105-.048-.102-.049-.1-.049-.097-.05-.095-.051-.093-.051-.09-.051-.087-.053-.085-.052-.083-.054-.08-.054-.077-.054v4.139zm0-5.666v.011l.001.02.003.022.004.021.005.022.006.021.007.022.009.023.01.022.011.023.012.023.013.023.015.023.016.024.017.024.018.023.019.024.021.025.022.024.023.024.024.025.052.05.056.05.061.05.066.051.07.051.075.052.079.051.084.052.088.052.092.052.097.052.102.052.105.051.11.052.114.051.119.051.123.051.127.05.131.05.135.05.139.049.144.048.147.048.152.047.155.046.16.045.163.045.167.043.171.043.176.042.178.04.183.04.187.038.19.037.194.036.197.034.202.033.204.032.209.03.212.028.216.027.219.025.222.024.226.021.23.02.233.018.236.017.24.014.243.012.246.01.249.008.253.006.256.003.259.001.26-.001.257-.003.254-.006.25-.008.247-.01.244-.013.241-.014.237-.016.233-.018.231-.02.226-.022.224-.024.22-.025.216-.027.212-.029.21-.03.205-.032.202-.033.198-.035.194-.036.191-.037.187-.039.183-.039.179-.041.175-.042.172-.043.168-.044.163-.045.16-.045.155-.047.152-.047.148-.048.143-.049.139-.049.136-.049.131-.051.126-.05.123-.051.118-.052.114-.051.11-.052.106-.052.101-.052.096-.052.092-.052.088-.052.083-.052.079-.052.074-.052.07-.051.065-.051.06-.051.056-.05.051-.049.023-.025.023-.025.021-.024.02-.024.019-.024.018-.024.017-.024.015-.023.014-.024.013-.023.012-.023.01-.022.01-.023.008-.022.006-.022.006-.022.004-.022.004-.021.001-.021.001-.021v-4.153l-.077.054-.08.054-.083.053-.085.053-.087.053-.09.051-.093.051-.095.051-.097.05-.1.049-.102.048-.105.048-.106.048-.109.046-.111.046-.114.046-.115.044-.118.044-.12.043-.122.043-.124.042-.126.041-.128.04-.13.039-.132.039-.134.038-.135.037-.138.036-.139.036-.142.034-.143.034-.144.033-.147.032-.148.032-.15.03-.151.03-.153.028-.154.028-.156.027-.158.026-.159.024-.161.024-.162.023-.163.023-.165.021-.166.02-.167.019-.169.018-.169.017-.171.016-.173.015-.173.014-.175.013-.175.012-.177.01-.178.01-.179.009-.179.007-.181.006-.182.006-.182.004-.184.003-.184.001-.185.001-.185-.001-.184-.001-.184-.003-.182-.004-.182-.006-.181-.006-.179-.007-.179-.009-.178-.01-.176-.01-.176-.012-.175-.013-.173-.014-.172-.015-.171-.016-.17-.017-.169-.018-.167-.019-.166-.02-.165-.021-.163-.023-.162-.023-.161-.024-.159-.024-.157-.026-.156-.027-.155-.028-.153-.028-.151-.03-.15-.03-.148-.032-.146-.032-.145-.033-.143-.034-.141-.034-.14-.036-.137-.036-.136-.037-.134-.038-.132-.039-.13-.039-.128-.041-.126-.041-.124-.041-.122-.043-.12-.043-.117-.044-.116-.044-.113-.046-.112-.046-.109-.046-.106-.048-.105-.048-.102-.048-.1-.05-.097-.049-.095-.051-.093-.051-.09-.052-.087-.052-.085-.053-.083-.053-.08-.054-.077-.054v4.153zm8.74-8.179l-.257.004-.254.005-.25.008-.247.011-.244.012-.241.014-.237.016-.233.018-.231.021-.226.022-.224.023-.22.026-.216.027-.212.028-.21.031-.205.032-.202.033-.198.034-.194.036-.191.038-.187.038-.183.04-.179.041-.175.042-.172.043-.168.043-.163.045-.16.046-.155.046-.152.048-.148.048-.143.048-.139.049-.136.05-.131.05-.126.051-.123.051-.118.051-.114.052-.11.052-.106.052-.101.052-.096.052-.092.052-.088.052-.083.052-.079.052-.074.051-.07.052-.065.051-.06.05-.056.05-.051.05-.023.025-.023.024-.021.024-.02.025-.019.024-.018.024-.017.023-.015.024-.014.023-.013.023-.012.023-.01.023-.01.022-.008.022-.006.023-.006.021-.004.022-.004.021-.001.021-.001.021.001.021.001.021.004.021.004.022.006.021.006.023.008.022.01.022.01.023.012.023.013.023.014.023.015.024.017.023.018.024.019.024.02.025.021.024.023.024.023.025.051.05.056.05.06.05.065.051.07.052.074.051.079.052.083.052.088.052.092.052.096.052.101.052.106.052.11.052.114.052.118.051.123.051.126.051.131.05.136.05.139.049.143.048.148.048.152.048.155.046.16.046.163.045.168.043.172.043.175.042.179.041.183.04.187.038.191.038.194.036.198.034.202.033.205.032.21.031.212.028.216.027.22.026.224.023.226.022.231.021.233.018.237.016.241.014.244.012.247.011.25.008.254.005.257.004.26.001.26-.001.257-.004.254-.005.25-.008.247-.011.244-.012.241-.014.237-.016.233-.018.231-.021.226-.022.224-.023.22-.026.216-.027.212-.028.21-.031.205-.032.202-.033.198-.034.194-.036.191-.038.187-.038.183-.04.179-.041.175-.042.172-.043.168-.043.163-.045.16-.046.155-.046.152-.048.148-.048.143-.048.139-.049.136-.05.131-.05.126-.051.123-.051.118-.051.114-.052.11-.052.106-.052.101-.052.096-.052.092-.052.088-.052.083-.052.079-.052.074-.051.07-.052.065-.051.06-.05.056-.05.051-.05.023-.025.023-.024.021-.024.02-.025.019-.024.018-.024.017-.023.015-.024.014-.023.013-.023.012-.023.01-.023.01-.022.008-.022.006-.023.006-.021.004-.022.004-.021.001-.021.001-.021-.001-.021-.001-.021-.004-.021-.004-.022-.006-.021-.006-.023-.008-.022-.01-.022-.01-.023-.012-.023-.013-.023-.014-.023-.015-.024-.017-.023-.018-.024-.019-.024-.02-.025-.021-.024-.023-.024-.023-.025-.051-.05-.056-.05-.06-.05-.065-.051-.07-.052-.074-.051-.079-.052-.083-.052-.088-.052-.092-.052-.096-.052-.101-.052-.106-.052-.11-.052-.114-.052-.118-.051-.123-.051-.126-.051-.131-.05-.136-.05-.139-.049-.143-.048-.148-.048-.152-.048-.155-.046-.16-.046-.163-.045-.168-.043-.172-.043-.175-.042-.179-.041-.183-.04-.187-.038-.191-.038-.194-.036-.198-.034-.202-.033-.205-.032-.21-.031-.212-.028-.216-.027-.22-.026-.224-.023-.226-.022-.231-.021-.233-.018-.237-.016-.241-.014-.244-.012-.247-.011-.25-.008-.254-.005-.257-.004-.26-.001-.26.001z"/></symbol></defs><defs><symbol id="clock" width="24" height="24"><path transform="scale(.5)" d="M12 2c5.514 0 10 4.486 10 10s-4.486 10-10 10-10-4.486-10-10 4.486-10 10-10zm0-2c-6.627 0-12 5.373-12 12s5.373 12 12 12 12-5.373 12-12-5.373-12-12-12zm5.848 12.459c.202.038.202.333.001.372-1.907.361-6.045 1.111-6.547 1.111-.719 0-1.301-.582-1.301-1.301 0-.512.77-5.447 1.125-7.445.034-.192.312-.181.343.014l.985 6.238 5.394 1.011z"/></symbol></defs><defs><marker id="arrowhead" refX="7.9" refY="5" markerUnits="userSpaceOnUse" markerWidth="12" markerHeight="12" orient="auto-start-reverse"><path d="M -1 0 L 10 5 L 0 10 z"/></marker></defs><defs><marker id="crosshead" markerWidth="15" markerHeight="8" orient="auto" refX="4" refY="4.5"><path fill="none" stroke="#000000" stroke-width="1pt" d="M 1,2 L 6,7 M 6,2 L 1,7" style="stroke-dasharray: 0, 0;"/></marker></defs><defs><marker id="filled-head" refX="15.5" refY="7" markerWidth="20" markerHeight="28" orient="auto"><path d="M 18,7 L9,13 L14,7 L9,1 Z"/></marker></defs><defs><marker id="sequencenumber" refX="15" refY="15" markerWidth="60" markerHeight="40" orient="auto" markerUnits="userSpaceOnUse"><circle cx="15" cy="15" r="10"/></marker></defs><g data-et="control-structure" data-id="i23"><line x1="1337" y1="1177" x2="2128" y2="1177" class="loopLine"/><line x1="2128" y1="1177" x2="2128" y2="1318" class="loopLine"/><line x1="1337" y1="1318" x2="2128" y2="1318" class="loopLine"/><line x1="1337" y1="1177" x2="1337" y2="1318" class="loopLine"/><polygon points="1337,1177 1387,1177 1387,1205 1378.6,1212 1337,1212" class="labelBox"/><text x="1362" y="1197" text-anchor="middle" dominant-baseline="middle" alignment-baseline="middle" style="font-size: 16px; font-weight: 400;" class="labelText">opt</text><text x="1757.5" y="1195" text-anchor="middle" style="font-size: 16px; font-weight: 400;" class="loopText"><tspan x="1757.5">[governance acknowledgement]</tspan></text></g><g data-et="note" data-id="i30"><rect x="1059.5" y="1616" fill="#EDF2AE" stroke="#666" width="577" height="37" class="note" data-look="neo"/><text x="1348" y="1621" text-anchor="middle" dominant-baseline="middle" alignment-baseline="middle" style="font-size: 16px; font-weight: 400;" class="noteText" dy="1em"><tspan x="1348">IntegritySnapshotCreated (DDD EVT 62) marks sealed bundle creation</tspan></text></g><g data-et="note" data-id="i31"><rect x="1323" y="1663" fill="#EDF2AE" stroke="#666" width="1178" height="37" class="note" data-look="neo"/><text x="1912" y="1668" text-anchor="middle" dominant-baseline="middle" alignment-baseline="middle" style="font-size: 16px; font-weight: 400;" class="noteText" dy="1em"><tspan x="1912">TransparencyLedgerUpdated (DDD EVT 63) after receipt recorded</tspan></text></g><g data-et="note" data-id="i32"><rect x="1595.5" y="1710" fill="#EDF2AE" stroke="#666" width="411" height="37" class="note" data-look="neo"/><text x="1801" y="1715" text-anchor="middle" dominant-baseline="middle" alignment-baseline="middle" style="font-size: 16px; font-weight: 400;" class="noteText" dy="1em"><tspan x="1801">KPIUpdated (DDD EVT 26) emitted on major steps</tspan></text></g><g class="actor-man actor-top" name="O" data-et="participant" data-id="O" style="stroke: rgb(238, 222, 187);"><line id="actor-man-torso7940" x1="114" y1="37.5" x2="114" y2="47.5"/><line id="actor-man-arms7940" x1="105" y1="41.5" x2="123" y2="41.5"/><line x1="105" y1="55" x2="114" y2="47.5"/><line x1="114" y1="47.5" x2="122" y2="55"/><circle cx="114" cy="30" r="7.5" width="114" height="32.5"/><text x="114" y="65" style="text-anchor: middle; font-size: 16px; font-weight: 400;" dominant-baseline="central" alignment-baseline="central" class="actor actor-man"><tspan x="114" dy="0">C1-02 Observer or Auditor</tspan></text></g><text x="343" y="90" text-anchor="middle" dominant-baseline="middle" alignment-baseline="middle" style="font-size: 16px; font-weight: 400;" class="messageText" dy="1em">request integrity snapshot (scope, window)</text><line x1="115" y1="123" x2="570" y2="123" class="messageLine0" data-et="message" data-id="i1" data-from="O" data-to="UI" stroke-width="2" stroke="none" marker-end="url(#arrowhead)" marker-start="url(#sequencenumber)" style="fill: none;"/><text x="115" y="127" font-family="sans-serif" font-size="12px" text-anchor="middle" class="sequenceNumber">1</text><text x="767" y="138" text-anchor="middle" dominant-baseline="middle" alignment-baseline="middle" style="font-size: 16px; font-weight: 400;" class="messageText" dy="1em">POST /transparency/snapshots</text><line x1="578" y1="171" x2="956" y2="171" class="messageLine0" data-et="message" data-id="i2" data-from="UI" data-to="API" stroke-width="2" stroke="none" marker-end="url(#arrowhead)" marker-start="url(#sequencenumber)" style="fill: none;"/><text x="578" y="175" font-family="sans-serif" font-size="12px" text-anchor="middle" class="sequenceNumber">2</text><text x="1153" y="186" text-anchor="middle" dominant-baseline="middle" alignment-baseline="middle" style="font-size: 16px; font-weight: 400;" class="messageText" dy="1em">startSnapshot(scope, window)</text><line x1="964" y1="219" x2="1341" y2="219" class="messageLine0" data-et="message" data-id="i3" data-from="API" data-to="SEC" stroke-width="2" stroke="none" marker-end="url(#arrowhead)" marker-start="url(#sequencenumber)" style="fill: none;"/><text x="964" y="223" font-family="sans-serif" font-size="12px" text-anchor="middle" class="sequenceNumber">3</text><text x="1572" y="234" text-anchor="middle" dominant-baseline="middle" alignment-baseline="middle" style="font-size: 16px; font-weight: 400;" class="messageText" dy="1em">fetch KPIs, SRI, events(window)</text><line x1="1349" y1="267" x2="1794" y2="267" class="messageLine0" data-et="message" data-id="i4" data-from="SEC" data-to="MET" stroke-width="2" stroke="none" marker-end="url(#arrowhead)" marker-start="url(#sequencenumber)" style="fill: none;"/><text x="1349" y="271" font-family="sans-serif" font-size="12px" text-anchor="middle" class="sequenceNumber">4</text><text x="1578" y="282" text-anchor="middle" dominant-baseline="middle" alignment-baseline="middle" style="font-size: 16px; font-weight: 400;" class="messageText" dy="1em">metrics bundle</text><line x1="1800" y1="315" x2="1355" y2="315" class="messageLine1" data-et="message" data-id="i5" data-from="MET" data-to="SEC" stroke-width="2" stroke="none" style="stroke-dasharray: 3, 3; fill: none;" marker-end="url(#arrowhead)" marker-start="url(#sequencenumber)"/><text x="1800" y="319" font-family="sans-serif" font-size="12px" text-anchor="middle" class="sequenceNumber">5</text><text x="1730" y="330" text-anchor="middle" dominant-baseline="middle" alignment-baseline="middle" style="font-size: 16px; font-weight: 400;" class="messageText" dy="1em">fetch governance decisions(window)</text><line x1="1349" y1="363" x2="2110" y2="363" class="messageLine0" data-et="message" data-id="i6" data-from="SEC" data-to="GOV" stroke-width="2" stroke="none" marker-end="url(#arrowhead)" marker-start="url(#sequencenumber)" style="fill: none;"/><text x="1349" y="367" font-family="sans-serif" font-size="12px" text-anchor="middle" class="sequenceNumber">6</text><text x="1736" y="378" text-anchor="middle" dominant-baseline="middle" alignment-baseline="middle" style="font-size: 16px; font-weight: 400;" class="messageText" dy="1em">decisions bundle</text><line x1="2116" y1="411" x2="1355" y2="411" class="messageLine1" data-et="message" data-id="i7" data-from="GOV" data-to="SEC" stroke-width="2" stroke="none" style="stroke-dasharray: 3, 3; fill: none;" marker-end="url(#arrowhead)" marker-start="url(#sequencenumber)"/><text x="2116" y="415" font-family="sans-serif" font-size="12px" text-anchor="middle" class="sequenceNumber">7</text><text x="1349" y="426" text-anchor="middle" dominant-baseline="middle" alignment-baseline="middle" style="font-size: 16px; font-weight: 400;" class="messageText" dy="1em">gather logs, proofs, attestations</text><path d="M 1349,459 C 1409,449 1409,489 1349,479" class="messageLine0" data-et="message" data-id="i8" data-from="SEC" data-to="SEC" stroke-width="2" stroke="none" marker-end="url(#arrowhead)" marker-start="url(#sequencenumber)" style="fill: none;"/><text x="1349" y="463" font-family="sans-serif" font-size="12px" text-anchor="middle" class="sequenceNumber">8</text><text x="1349" y="504" text-anchor="middle" dominant-baseline="middle" alignment-baseline="middle" style="font-size: 16px; font-weight: 400;" class="messageText" dy="1em">compose integrity bundle (manifests + hashes)</text><path d="M 1349,537 C 1409,527 1409,567 1349,557" class="messageLine0" data-et="message" data-id="i9" data-from="SEC" data-to="SEC" stroke-width="2" stroke="none" marker-end="url(#arrowhead)" marker-start="url(#sequencenumber)" style="fill: none;"/><text x="1349" y="541" font-family="sans-serif" font-size="12px" text-anchor="middle" class="sequenceNumber">9</text><text x="1349" y="582" text-anchor="middle" dominant-baseline="middle" alignment-baseline="middle" style="font-size: 16px; font-weight: 400;" class="messageText" dy="1em">sign bundle (sig, pubkey, timestamp)</text><path d="M 1349,615 C 1409,605 1409,645 1349,635" class="messageLine0" data-et="message" data-id="i10" data-from="SEC" data-to="SEC" stroke-width="2" stroke="none" marker-end="url(#arrowhead)" marker-start="url(#sequencenumber)" style="fill: none;"/><text x="1349" y="619" font-family="sans-serif" font-size="12px" text-anchor="middle" class="sequenceNumber">10</text><text x="1572" y="660" text-anchor="middle" dominant-baseline="middle" alignment-baseline="middle" style="font-size: 16px; font-weight: 400;" class="messageText" dy="1em">event IntegritySnapshotCreated (DDD EVT 62)</text><line x1="1349" y1="693" x2="1794" y2="693" class="messageLine1" data-et="message" data-id="i11" data-from="SEC" data-to="MET" stroke-width="2" stroke="none" style="stroke-dasharray: 3, 3; fill: none;" marker-end="url(#arrowhead)" marker-start="url(#sequencenumber)"/><text x="1349" y="697" font-family="sans-serif" font-size="12px" text-anchor="middle" class="sequenceNumber">11</text><text x="1802" y="708" text-anchor="middle" dominant-baseline="middle" alignment-baseline="middle" style="font-size: 16px; font-weight: 400;" class="messageText" dy="1em">event KPIUpdated (DDD EVT 26)</text><path d="M 1802,741 C 1862,731 1862,771 1802,761" class="messageLine1" data-et="message" data-id="i12" data-from="MET" data-to="MET" stroke-width="2" stroke="none" style="stroke-dasharray: 3, 3; fill: none;" marker-end="url(#arrowhead)" marker-start="url(#sequencenumber)"/><text x="1802" y="745" font-family="sans-serif" font-size="12px" text-anchor="middle" class="sequenceNumber">12</text><text x="1909" y="786" text-anchor="middle" dominant-baseline="middle" alignment-baseline="middle" style="font-size: 16px; font-weight: 400;" class="messageText" dy="1em">put(bundle)  %% store content or tx</text><line x1="1349" y1="819" x2="2469" y2="819" class="messageLine0" data-et="message" data-id="i13" data-from="SEC" data-to="TLG" stroke-width="2" stroke="none" marker-end="url(#arrowhead)" marker-start="url(#sequencenumber)" style="fill: none;"/><text x="1349" y="823" font-family="sans-serif" font-size="12px" text-anchor="middle" class="sequenceNumber">13</text><text x="1915" y="834" text-anchor="middle" dominant-baseline="middle" alignment-baseline="middle" style="font-size: 16px; font-weight: 400;" class="messageText" dy="1em">receipt (cid or txHash)</text><line x1="2475" y1="867" x2="1355" y2="867" class="messageLine1" data-et="message" data-id="i14" data-from="TLG" data-to="SEC" stroke-width="2" stroke="none" style="stroke-dasharray: 3, 3; fill: none;" marker-end="url(#arrowhead)" marker-start="url(#sequencenumber)"/><text x="2475" y="871" font-family="sans-serif" font-size="12px" text-anchor="middle" class="sequenceNumber">14</text><text x="1349" y="882" text-anchor="middle" dominant-baseline="middle" alignment-baseline="middle" style="font-size: 16px; font-weight: 400;" class="messageText" dy="1em">bind receipt to bundle index</text><path d="M 1349,915 C 1409,905 1409,945 1349,935" class="messageLine0" data-et="message" data-id="i15" data-from="SEC" data-to="SEC" stroke-width="2" stroke="none" marker-end="url(#arrowhead)" marker-start="url(#sequencenumber)" style="fill: none;"/><text x="1349" y="919" font-family="sans-serif" font-size="12px" text-anchor="middle" class="sequenceNumber">15</text><text x="1572" y="960" text-anchor="middle" dominant-baseline="middle" alignment-baseline="middle" style="font-size: 16px; font-weight: 400;" class="messageText" dy="1em">event TransparencyLedgerUpdated (DDD EVT 63)</text><line x1="1349" y1="993" x2="1794" y2="993" class="messageLine1" data-et="message" data-id="i16" data-from="SEC" data-to="MET" stroke-width="2" stroke="none" style="stroke-dasharray: 3, 3; fill: none;" marker-end="url(#arrowhead)" marker-start="url(#sequencenumber)"/><text x="1349" y="997" font-family="sans-serif" font-size="12px" text-anchor="middle" class="sequenceNumber">16</text><text x="1802" y="1008" text-anchor="middle" dominant-baseline="middle" alignment-baseline="middle" style="font-size: 16px; font-weight: 400;" class="messageText" dy="1em">event KPIUpdated (DDD EVT 26)</text><path d="M 1802,1041 C 1862,1031 1862,1071 1802,1061" class="messageLine1" data-et="message" data-id="i17" data-from="MET" data-to="MET" stroke-width="2" stroke="none" style="stroke-dasharray: 3, 3; fill: none;" marker-end="url(#arrowhead)" marker-start="url(#sequencenumber)"/><text x="1802" y="1045" font-family="sans-serif" font-size="12px" text-anchor="middle" class="sequenceNumber">17</text><text x="1159" y="1086" text-anchor="middle" dominant-baseline="middle" alignment-baseline="middle" style="font-size: 16px; font-weight: 400;" class="messageText" dy="1em">registerSnapshot(metadata, receipt)</text><line x1="1347" y1="1119" x2="970" y2="1119" class="messageLine0" data-et="message" data-id="i18" data-from="SEC" data-to="API" stroke-width="2" stroke="none" marker-end="url(#arrowhead)" marker-start="url(#sequencenumber)" style="fill: none;"/><text x="1347" y="1123" font-family="sans-serif" font-size="12px" text-anchor="middle" class="sequenceNumber">18</text><text x="773" y="1134" text-anchor="middle" dominant-baseline="middle" alignment-baseline="middle" style="font-size: 16px; font-weight: 400;" class="messageText" dy="1em">snapshotRegistered(link, receipt)</text><line x1="962" y1="1167" x2="584" y2="1167" class="messageLine1" data-et="message" data-id="i19" data-from="API" data-to="UI" stroke-width="2" stroke="none" style="stroke-dasharray: 3, 3; fill: none;" marker-end="url(#arrowhead)" marker-start="url(#sequencenumber)"/><text x="962" y="1171" font-family="sans-serif" font-size="12px" text-anchor="middle" class="sequenceNumber">19</text><text x="1730" y="1227" text-anchor="middle" dominant-baseline="middle" alignment-baseline="middle" style="font-size: 16px; font-weight: 400;" class="messageText" dy="1em">notify snapshot receipt</text><line x1="1349" y1="1260" x2="2110" y2="1260" class="messageLine0" data-et="message" data-id="i21" data-from="SEC" data-to="GOV" stroke-width="2" stroke="none" marker-end="url(#arrowhead)" marker-start="url(#sequencenumber)" style="fill: none;"/><text x="1349" y="1264" font-family="sans-serif" font-size="12px" text-anchor="middle" class="sequenceNumber">20</text><text x="1962" y="1275" text-anchor="middle" dominant-baseline="middle" alignment-baseline="middle" style="font-size: 16px; font-weight: 400;" class="messageText" dy="1em">DecisionRecorded (DDD EVT 08)</text><line x1="2116" y1="1308" x2="1808" y2="1308" class="messageLine1" data-et="message" data-id="i22" data-from="GOV" data-to="MET" stroke-width="2" stroke="none" style="stroke-dasharray: 3, 3; fill: none;" marker-end="url(#arrowhead)" marker-start="url(#sequencenumber)"/><text x="2116" y="1312" font-family="sans-serif" font-size="12px" text-anchor="middle" class="sequenceNumber">21</text><text x="343" y="1333" text-anchor="middle" dominant-baseline="middle" alignment-baseline="middle" style="font-size: 16px; font-weight: 400;" class="messageText" dy="1em">open snapshot viewer</text><line x1="115" y1="1366" x2="570" y2="1366" class="messageLine0" data-et="message" data-id="i24" data-from="O" data-to="UI" stroke-width="2" stroke="none" marker-end="url(#arrowhead)" marker-start="url(#sequencenumber)" style="fill: none;"/><text x="115" y="1370" font-family="sans-serif" font-size="12px" text-anchor="middle" class="sequenceNumber">22</text><text x="767" y="1381" text-anchor="middle" dominant-baseline="middle" alignment-baseline="middle" style="font-size: 16px; font-weight: 400;" class="messageText" dy="1em">GET /transparency/snapshots/{id}</text><line x1="578" y1="1414" x2="956" y2="1414" class="messageLine0" data-et="message" data-id="i25" data-from="UI" data-to="API" stroke-width="2" stroke="none" marker-end="url(#arrowhead)" marker-start="url(#sequencenumber)" style="fill: none;"/><text x="578" y="1418" font-family="sans-serif" font-size="12px" text-anchor="middle" class="sequenceNumber">23</text><text x="1153" y="1429" text-anchor="middle" dominant-baseline="middle" alignment-baseline="middle" style="font-size: 16px; font-weight: 400;" class="messageText" dy="1em">fetch index and receipt</text><line x1="964" y1="1462" x2="1341" y2="1462" class="messageLine0" data-et="message" data-id="i26" data-from="API" data-to="SEC" stroke-width="2" stroke="none" marker-end="url(#arrowhead)" marker-start="url(#sequencenumber)" style="fill: none;"/><text x="964" y="1466" font-family="sans-serif" font-size="12px" text-anchor="middle" class="sequenceNumber">24</text><text x="1159" y="1477" text-anchor="middle" dominant-baseline="middle" alignment-baseline="middle" style="font-size: 16px; font-weight: 400;" class="messageText" dy="1em">bundle index, proof refs</text><line x1="1347" y1="1510" x2="970" y2="1510" class="messageLine1" data-et="message" data-id="i27" data-from="SEC" data-to="API" stroke-width="2" stroke="none" style="stroke-dasharray: 3, 3; fill: none;" marker-end="url(#arrowhead)" marker-start="url(#sequencenumber)"/><text x="1347" y="1514" font-family="sans-serif" font-size="12px" text-anchor="middle" class="sequenceNumber">25</text><text x="773" y="1525" text-anchor="middle" dominant-baseline="middle" alignment-baseline="middle" style="font-size: 16px; font-weight: 400;" class="messageText" dy="1em">render manifest, hashes, receipt link</text><line x1="962" y1="1558" x2="584" y2="1558" class="messageLine1" data-et="message" data-id="i28" data-from="API" data-to="UI" stroke-width="2" stroke="none" style="stroke-dasharray: 3, 3; fill: none;" marker-end="url(#arrowhead)" marker-start="url(#sequencenumber)"/><text x="962" y="1562" font-family="sans-serif" font-size="12px" text-anchor="middle" class="sequenceNumber">26</text><text x="349" y="1573" text-anchor="middle" dominant-baseline="middle" alignment-baseline="middle" style="font-size: 16px; font-weight: 400;" class="messageText" dy="1em">display integrity snapshot and verification links</text><line x1="576" y1="1606" x2="121" y2="1606" class="messageLine1" data-et="message" data-id="i29" data-from="UI" data-to="O" stroke-width="2" stroke="none" style="stroke-dasharray: 3, 3; fill: none;" marker-end="url(#arrowhead)" marker-start="url(#sequencenumber)"/><text x="576" y="1610" font-family="sans-serif" font-size="12px" text-anchor="middle" class="sequenceNumber">27</text><g class="actor-man actor-bottom" name="O" style="stroke: rgb(238, 222, 187);"><line id="actor-man-torso7946" x1="114" y1="1794.5" x2="114" y2="1804.5"/><line id="actor-man-arms7946" x1="105" y1="1798.5" x2="123" y2="1798.5"/><line x1="105" y1="1812" x2="114" y2="1804.5"/><line x1="114" y1="1804.5" x2="122" y2="1812"/><circle cx="114" cy="1787" r="7.5" width="114" height="16.25"/><text x="114" y="1822" style="text-anchor: middle; font-size: 16px; font-weight: 400;" dominant-baseline="central" alignment-baseline="central" class="actor actor-man"><tspan x="114" dy="0">C1-02 Observer or Auditor</tspan></text></g></svg>